<svg width="147" height="87" viewBox="0 0 147 87" fill="none" xmlns="http://www.w3.org/2000/svg">
<path d="M34.41 51.01H26.07L24.69 55H20.28L27.81 34.03H32.7L40.23 55H35.79L34.41 51.01ZM33.27 47.65L30.24 38.89L27.21 47.65H33.27Z" fill="url(#paint0_linear)"/>
<path d="M50.7546 38.14C52.7346 38.14 54.3346 38.77 55.5546 40.03C56.7746 41.27 57.3846 43.01 57.3846 45.25V55H53.1846V45.82C53.1846 44.5 52.8546 43.49 52.1946 42.79C51.5346 42.07 50.6346 41.71 49.4946 41.71C48.3346 41.71 47.4146 42.07 46.7346 42.79C46.0746 43.49 45.7446 44.5 45.7446 45.82V55H41.5446V38.38H45.7446V40.45C46.3046 39.73 47.0146 39.17 47.8746 38.77C48.7546 38.35 49.7146 38.14 50.7546 38.14Z" fill="url(#paint1_linear)"/>
<path d="M75.7786 38.38L65.4886 62.86H61.0186L64.6186 54.58L57.9586 38.38H62.6686L66.9586 49.99L71.3086 38.38H75.7786Z" fill="url(#paint2_linear)"/>
<path d="M81.4327 41.83V49.87C81.4327 50.43 81.5627 50.84 81.8227 51.1C82.1027 51.34 82.5627 51.46 83.2027 51.46H85.1527V55H82.5127C78.9727 55 77.2027 53.28 77.2027 49.84V41.83H75.2227V38.38H77.2027V34.27H81.4327V38.38H85.1527V41.83H81.4327Z" fill="url(#paint3_linear)"/>
<path d="M96.0335 38.14C97.2935 38.14 98.4135 38.42 99.3935 38.98C100.374 39.52 101.134 40.33 101.674 41.41C102.234 42.47 102.514 43.75 102.514 45.25V55H98.3135V45.82C98.3135 44.5 97.9835 43.49 97.3235 42.79C96.6635 42.07 95.7636 41.71 94.6236 41.71C93.4636 41.71 92.5435 42.07 91.8635 42.79C91.2035 43.49 90.8735 44.5 90.8735 45.82V55H86.6735V32.8H90.8735V40.45C91.4135 39.73 92.1335 39.17 93.0335 38.77C93.9335 38.35 94.9335 38.14 96.0335 38.14Z" fill="url(#paint4_linear)"/>
<path d="M121.067 38.14C123.047 38.14 124.647 38.77 125.867 40.03C127.087 41.27 127.697 43.01 127.697 45.25V55H123.497V45.82C123.497 44.5 123.167 43.49 122.507 42.79C121.847 42.07 120.947 41.71 119.807 41.71C118.647 41.71 117.727 42.07 117.047 42.79C116.387 43.49 116.057 44.5 116.057 45.82V55H111.857V38.38H116.057V40.45C116.617 39.73 117.327 39.17 118.187 38.77C119.067 38.35 120.027 38.14 121.067 38.14Z" fill="url(#paint5_linear)"/>
<path d="M136.701 38.11C137.941 38.11 139.031 38.36 139.971 38.86C140.911 39.34 141.651 39.97 142.191 40.75V38.38H146.421V55.12C146.421 56.66 146.111 58.03 145.491 59.23C144.871 60.45 143.941 61.41 142.701 62.11C141.461 62.83 139.961 63.19 138.201 63.19C135.841 63.19 133.901 62.64 132.381 61.54C130.881 60.44 130.031 58.94 129.831 57.04H134.001C134.221 57.8 134.691 58.4 135.411 58.84C136.151 59.3 137.041 59.53 138.081 59.53C139.301 59.53 140.291 59.16 141.051 58.42C141.811 57.7 142.191 56.6 142.191 55.12V52.54C141.651 53.32 140.901 53.97 139.941 54.49C139.001 55.01 137.921 55.27 136.701 55.27C135.301 55.27 134.021 54.91 132.861 54.19C131.701 53.47 130.781 52.46 130.101 51.16C129.441 49.84 129.111 48.33 129.111 46.63C129.111 44.95 129.441 43.46 130.101 42.16C130.781 40.86 131.691 39.86 132.831 39.16C133.991 38.46 135.281 38.11 136.701 38.11ZM142.191 46.69C142.191 45.67 141.991 44.8 141.591 44.08C141.191 43.34 140.651 42.78 139.971 42.4C139.291 42 138.561 41.8 137.781 41.8C137.001 41.8 136.281 41.99 135.621 42.37C134.961 42.75 134.421 43.31 134.001 44.05C133.601 44.77 133.401 45.63 133.401 46.63C133.401 47.63 133.601 48.51 134.001 49.27C134.421 50.01 134.961 50.58 135.621 50.98C136.301 51.38 137.021 51.58 137.781 51.58C138.561 51.58 139.291 51.39 139.971 51.01C140.651 50.61 141.191 50.05 141.591 49.33C141.991 48.59 142.191 47.71 142.191 46.69Z" fill="url(#paint6_linear)"/>
<path d="M21.41 30.01H13.07L11.69 34H7.28L14.81 13.03H19.7L27.23 34H22.79L21.41 30.01ZM20.27 26.65L17.24 17.89L14.21 26.65H20.27ZM34.9046 34.27C33.5446 34.27 32.3246 34.03 31.2446 33.55C30.1646 33.05 29.3046 32.38 28.6646 31.54C28.0446 30.7 27.7046 29.77 27.6446 28.75H31.8746C31.9546 29.39 32.2646 29.92 32.8046 30.34C33.3646 30.76 34.0546 30.97 34.8746 30.97C35.6746 30.97 36.2946 30.81 36.7346 30.49C37.1946 30.17 37.4246 29.76 37.4246 29.26C37.4246 28.72 37.1446 28.32 36.5846 28.06C36.0446 27.78 35.1746 27.48 33.9746 27.16C32.7346 26.86 31.7146 26.55 30.9146 26.23C30.1346 25.91 29.4546 25.42 28.8746 24.76C28.3146 24.1 28.0346 23.21 28.0346 22.09C28.0346 21.17 28.2946 20.33 28.8146 19.57C29.3546 18.81 30.1146 18.21 31.0946 17.77C32.0946 17.33 33.2646 17.11 34.6046 17.11C36.5846 17.11 38.1646 17.61 39.3446 18.61C40.5246 19.59 41.1746 20.92 41.2946 22.6H37.2746C37.2146 21.94 36.9346 21.42 36.4346 21.04C35.9546 20.64 35.3046 20.44 34.4846 20.44C33.7246 20.44 33.1346 20.58 32.7146 20.86C32.3146 21.14 32.1146 21.53 32.1146 22.03C32.1146 22.59 32.3946 23.02 32.9546 23.32C33.5146 23.6 34.3846 23.89 35.5646 24.19C36.7646 24.49 37.7546 24.8 38.5346 25.12C39.3146 25.44 39.9846 25.94 40.5446 26.62C41.1246 27.28 41.4246 28.16 41.4446 29.26C41.4446 30.22 41.1746 31.08 40.6346 31.84C40.1146 32.6 39.3546 33.2 38.3546 33.64C37.3746 34.06 36.2246 34.27 34.9046 34.27ZM53.2323 34L47.5923 26.92V34H43.3923V11.8H47.5923V24.43L53.1723 17.38H58.6323L51.3123 25.72L58.6923 34H53.2323ZM82.2418 13.06V34H78.0418V20.38L72.4318 34H69.2518L63.6118 20.38V34H59.4118V13.06H64.1818L70.8418 28.63L77.5018 13.06H82.2418ZM100.344 25.33C100.344 25.93 100.304 26.47 100.224 26.95H88.0742C88.1742 28.15 88.5942 29.09 89.3342 29.77C90.0742 30.45 90.9842 30.79 92.0642 30.79C93.6242 30.79 94.7342 30.12 95.3942 28.78H99.9242C99.4442 30.38 98.5242 31.7 97.1642 32.74C95.8042 33.76 94.1342 34.27 92.1542 34.27C90.5542 34.27 89.1142 33.92 87.8342 33.22C86.5742 32.5 85.5842 31.49 84.8642 30.19C84.1642 28.89 83.8142 27.39 83.8142 25.69C83.8142 23.97 84.1642 22.46 84.8642 21.16C85.5642 19.86 86.5442 18.86 87.8042 18.16C89.0642 17.46 90.5142 17.11 92.1542 17.11C93.7342 17.11 95.1442 17.45 96.3842 18.13C97.6442 18.81 98.6142 19.78 99.2942 21.04C99.9942 22.28 100.344 23.71 100.344 25.33ZM95.9942 24.13C95.9742 23.05 95.5842 22.19 94.8242 21.55C94.0642 20.89 93.1342 20.56 92.0342 20.56C90.9942 20.56 90.1142 20.88 89.3942 21.52C88.6942 22.14 88.2642 23.01 88.1042 24.13H95.9942Z" fill="white"/>
<path d="M107.245 38.5V56.8533C107.245 60.5711 104.682 63.585 101.52 63.585H91.5L94.8485 81.9577C95.1412 83.5636 93.5045 84.6609 92.4781 83.5469L77.1863 66.9508L8.72549 66.9508C5.56339 66.9508 3 63.937 3 60.2192V56.8533V18.1462V9.73167C3 6.01387 5.56339 3 8.72549 3L101.52 3C104.682 3 107.245 6.01387 107.245 9.73166V29.5M107.245 31.5V36.5" stroke="url(#paint7_linear)" stroke-width="4.30079"/>
<defs>
<linearGradient id="paint0_linear" x1="20.28" y1="32.8" x2="133.011" y2="89.7397" gradientUnits="userSpaceOnUse">
<stop stop-color="#4AF6FF"/>
<stop offset="1" stop-color="#5BBBFF"/>
</linearGradient>
<linearGradient id="paint1_linear" x1="20.28" y1="32.8" x2="133.011" y2="89.7397" gradientUnits="userSpaceOnUse">
<stop stop-color="#4AF6FF"/>
<stop offset="1" stop-color="#5BBBFF"/>
</linearGradient>
<linearGradient id="paint2_linear" x1="20.28" y1="32.8" x2="133.011" y2="89.7397" gradientUnits="userSpaceOnUse">
<stop stop-color="#4AF6FF"/>
<stop offset="1" stop-color="#5BBBFF"/>
</linearGradient>
<linearGradient id="paint3_linear" x1="20.28" y1="32.8" x2="133.011" y2="89.7397" gradientUnits="userSpaceOnUse">
<stop stop-color="#4AF6FF"/>
<stop offset="1" stop-color="#5BBBFF"/>
</linearGradient>
<linearGradient id="paint4_linear" x1="20.28" y1="32.8" x2="133.011" y2="89.7397" gradientUnits="userSpaceOnUse">
<stop stop-color="#4AF6FF"/>
<stop offset="1" stop-color="#5BBBFF"/>
</linearGradient>
<linearGradient id="paint5_linear" x1="20.28" y1="32.8" x2="133.011" y2="89.7397" gradientUnits="userSpaceOnUse">
<stop stop-color="#4AF6FF"/>
<stop offset="1" stop-color="#5BBBFF"/>
</linearGradient>
<linearGradient id="paint6_linear" x1="20.28" y1="32.8" x2="133.011" y2="89.7397" gradientUnits="userSpaceOnUse">
<stop stop-color="#4AF6FF"/>
<stop offset="1" stop-color="#5BBBFF"/>
</linearGradient>
<linearGradient id="paint7_linear" x1="3" y1="3" x2="117.131" y2="20.8739" gradientUnits="userSpaceOnUse">
<stop stop-color="#4AF6FF"/>
<stop offset="1" stop-color="#5BBBFF"/>
</linearGradient>
</defs>
</svg>
