<svg width="185" height="105" viewBox="0 0 185 105" fill="none" xmlns="http://www.w3.org/2000/svg">
<rect width="185" height="105" rx="8" fill="white"/>
<path d="M52.41 61.01H44.07L42.69 65H38.28L45.81 44.03H50.7L58.23 65H53.79L52.41 61.01ZM51.27 57.65L48.24 48.89L45.21 57.65H51.27Z" fill="url(#paint0_linear)"/>
<path d="M68.7546 48.14C70.7346 48.14 72.3346 48.77 73.5546 50.03C74.7746 51.27 75.3846 53.01 75.3846 55.25V65H71.1846V55.82C71.1846 54.5 70.8546 53.49 70.1946 52.79C69.5346 52.07 68.6346 51.71 67.4946 51.71C66.3346 51.71 65.4146 52.07 64.7346 52.79C64.0746 53.49 63.7446 54.5 63.7446 55.82V65H59.5446V48.38H63.7446V50.45C64.3046 49.73 65.0146 49.17 65.8746 48.77C66.7546 48.35 67.7146 48.14 68.7546 48.14Z" fill="url(#paint1_linear)"/>
<path d="M93.7786 48.38L83.4886 72.86H79.0186L82.6186 64.58L75.9586 48.38H80.6686L84.9586 59.99L89.3086 48.38H93.7786Z" fill="url(#paint2_linear)"/>
<path d="M99.4327 51.83V59.87C99.4327 60.43 99.5627 60.84 99.8227 61.1C100.103 61.34 100.563 61.46 101.203 61.46H103.153V65H100.513C96.9727 65 95.2027 63.28 95.2027 59.84V51.83H93.2227V48.38H95.2027V44.27H99.4327V48.38H103.153V51.83H99.4327Z" fill="url(#paint3_linear)"/>
<path d="M114.034 48.14C115.294 48.14 116.414 48.42 117.394 48.98C118.374 49.52 119.134 50.33 119.674 51.41C120.234 52.47 120.514 53.75 120.514 55.25V65H116.314V55.82C116.314 54.5 115.984 53.49 115.324 52.79C114.664 52.07 113.764 51.71 112.624 51.71C111.464 51.71 110.544 52.07 109.864 52.79C109.204 53.49 108.874 54.5 108.874 55.82V65H104.674V42.8H108.874V50.45C109.414 49.73 110.134 49.17 111.034 48.77C111.934 48.35 112.934 48.14 114.034 48.14Z" fill="url(#paint4_linear)"/>
<path d="M139.067 48.14C141.047 48.14 142.647 48.77 143.867 50.03C145.087 51.27 145.697 53.01 145.697 55.25V65H141.497V55.82C141.497 54.5 141.167 53.49 140.507 52.79C139.847 52.07 138.947 51.71 137.807 51.71C136.647 51.71 135.727 52.07 135.047 52.79C134.387 53.49 134.057 54.5 134.057 55.82V65H129.857V48.38H134.057V50.45C134.617 49.73 135.327 49.17 136.187 48.77C137.067 48.35 138.027 48.14 139.067 48.14Z" fill="url(#paint5_linear)"/>
<path d="M154.701 48.11C155.941 48.11 157.031 48.36 157.971 48.86C158.911 49.34 159.651 49.97 160.191 50.75V48.38H164.421V65.12C164.421 66.66 164.111 68.03 163.491 69.23C162.871 70.45 161.941 71.41 160.701 72.11C159.461 72.83 157.961 73.19 156.201 73.19C153.841 73.19 151.901 72.64 150.381 71.54C148.881 70.44 148.031 68.94 147.831 67.04H152.001C152.221 67.8 152.691 68.4 153.411 68.84C154.151 69.3 155.041 69.53 156.081 69.53C157.301 69.53 158.291 69.16 159.051 68.42C159.811 67.7 160.191 66.6 160.191 65.12V62.54C159.651 63.32 158.901 63.97 157.941 64.49C157.001 65.01 155.921 65.27 154.701 65.27C153.301 65.27 152.021 64.91 150.861 64.19C149.701 63.47 148.781 62.46 148.101 61.16C147.441 59.84 147.111 58.33 147.111 56.63C147.111 54.95 147.441 53.46 148.101 52.16C148.781 50.86 149.691 49.86 150.831 49.16C151.991 48.46 153.281 48.11 154.701 48.11ZM160.191 56.69C160.191 55.67 159.991 54.8 159.591 54.08C159.191 53.34 158.651 52.78 157.971 52.4C157.291 52 156.561 51.8 155.781 51.8C155.001 51.8 154.281 51.99 153.621 52.37C152.961 52.75 152.421 53.31 152.001 54.05C151.601 54.77 151.401 55.63 151.401 56.63C151.401 57.63 151.601 58.51 152.001 59.27C152.421 60.01 152.961 60.58 153.621 60.98C154.301 61.38 155.021 61.58 155.781 61.58C156.561 61.58 157.291 61.39 157.971 61.01C158.651 60.61 159.191 60.05 159.591 59.33C159.991 58.59 160.191 57.71 160.191 56.69Z" fill="url(#paint6_linear)"/>
<path d="M39.41 40.01H31.07L29.69 44H25.28L32.81 23.03H37.7L45.23 44H40.79L39.41 40.01ZM38.27 36.65L35.24 27.89L32.21 36.65H38.27ZM52.9046 44.27C51.5446 44.27 50.3246 44.03 49.2446 43.55C48.1646 43.05 47.3046 42.38 46.6646 41.54C46.0446 40.7 45.7046 39.77 45.6446 38.75H49.8746C49.9546 39.39 50.2646 39.92 50.8046 40.34C51.3646 40.76 52.0546 40.97 52.8746 40.97C53.6746 40.97 54.2946 40.81 54.7346 40.49C55.1946 40.17 55.4246 39.76 55.4246 39.26C55.4246 38.72 55.1446 38.32 54.5846 38.06C54.0446 37.78 53.1746 37.48 51.9746 37.16C50.7346 36.86 49.7146 36.55 48.9146 36.23C48.1346 35.91 47.4546 35.42 46.8746 34.76C46.3146 34.1 46.0346 33.21 46.0346 32.09C46.0346 31.17 46.2946 30.33 46.8146 29.57C47.3546 28.81 48.1146 28.21 49.0946 27.77C50.0946 27.33 51.2646 27.11 52.6046 27.11C54.5846 27.11 56.1646 27.61 57.3446 28.61C58.5246 29.59 59.1746 30.92 59.2946 32.6H55.2746C55.2146 31.94 54.9346 31.42 54.4346 31.04C53.9546 30.64 53.3046 30.44 52.4846 30.44C51.7246 30.44 51.1346 30.58 50.7146 30.86C50.3146 31.14 50.1146 31.53 50.1146 32.03C50.1146 32.59 50.3946 33.02 50.9546 33.32C51.5146 33.6 52.3846 33.89 53.5646 34.19C54.7646 34.49 55.7546 34.8 56.5346 35.12C57.3146 35.44 57.9846 35.94 58.5446 36.62C59.1246 37.28 59.4246 38.16 59.4446 39.26C59.4446 40.22 59.1746 41.08 58.6346 41.84C58.1146 42.6 57.3546 43.2 56.3546 43.64C55.3746 44.06 54.2246 44.27 52.9046 44.27ZM71.2323 44L65.5923 36.92V44H61.3923V21.8H65.5923V34.43L71.1723 27.38H76.6323L69.3123 35.72L76.6923 44H71.2323ZM100.242 23.06V44H96.0418V30.38L90.4318 44H87.2518L81.6118 30.38V44H77.4118V23.06H82.1818L88.8418 38.63L95.5018 23.06H100.242ZM118.344 35.33C118.344 35.93 118.304 36.47 118.224 36.95H106.074C106.174 38.15 106.594 39.09 107.334 39.77C108.074 40.45 108.984 40.79 110.064 40.79C111.624 40.79 112.734 40.12 113.394 38.78H117.924C117.444 40.38 116.524 41.7 115.164 42.74C113.804 43.76 112.134 44.27 110.154 44.27C108.554 44.27 107.114 43.92 105.834 43.22C104.574 42.5 103.584 41.49 102.864 40.19C102.164 38.89 101.814 37.39 101.814 35.69C101.814 33.97 102.164 32.46 102.864 31.16C103.564 29.86 104.544 28.86 105.804 28.16C107.064 27.46 108.514 27.11 110.154 27.11C111.734 27.11 113.144 27.45 114.384 28.13C115.644 28.81 116.614 29.78 117.294 31.04C117.994 32.28 118.344 33.71 118.344 35.33ZM113.994 34.13C113.974 33.05 113.584 32.19 112.824 31.55C112.064 30.89 111.134 30.56 110.034 30.56C108.994 30.56 108.114 30.88 107.394 31.52C106.694 32.14 106.264 33.01 106.104 34.13H113.994Z" fill="#29292E"/>
<path d="M125.245 48.5V66.8533C125.245 70.5711 122.682 73.585 119.52 73.585H109.5L112.849 91.9577C113.141 93.5636 111.504 94.6609 110.478 93.5469L95.1863 76.9508L26.7255 76.9508C23.5634 76.9508 21 73.937 21 70.2192V66.8533V28.1462V19.7317C21 16.0139 23.5634 13 26.7255 13L119.52 13C122.682 13 125.245 16.0139 125.245 19.7317V39.5M125.245 41.5V46.5" stroke="url(#paint7_linear)" stroke-width="4.30079"/>
<defs>
<linearGradient id="paint0_linear" x1="38.28" y1="42.8" x2="151.011" y2="99.7397" gradientUnits="userSpaceOnUse">
<stop stop-color="#4AF6FF"/>
<stop offset="1" stop-color="#5BBBFF"/>
</linearGradient>
<linearGradient id="paint1_linear" x1="38.28" y1="42.8" x2="151.011" y2="99.7397" gradientUnits="userSpaceOnUse">
<stop stop-color="#4AF6FF"/>
<stop offset="1" stop-color="#5BBBFF"/>
</linearGradient>
<linearGradient id="paint2_linear" x1="38.28" y1="42.8" x2="151.011" y2="99.7397" gradientUnits="userSpaceOnUse">
<stop stop-color="#4AF6FF"/>
<stop offset="1" stop-color="#5BBBFF"/>
</linearGradient>
<linearGradient id="paint3_linear" x1="38.28" y1="42.8" x2="151.011" y2="99.7397" gradientUnits="userSpaceOnUse">
<stop stop-color="#4AF6FF"/>
<stop offset="1" stop-color="#5BBBFF"/>
</linearGradient>
<linearGradient id="paint4_linear" x1="38.28" y1="42.8" x2="151.011" y2="99.7397" gradientUnits="userSpaceOnUse">
<stop stop-color="#4AF6FF"/>
<stop offset="1" stop-color="#5BBBFF"/>
</linearGradient>
<linearGradient id="paint5_linear" x1="38.28" y1="42.8" x2="151.011" y2="99.7397" gradientUnits="userSpaceOnUse">
<stop stop-color="#4AF6FF"/>
<stop offset="1" stop-color="#5BBBFF"/>
</linearGradient>
<linearGradient id="paint6_linear" x1="38.28" y1="42.8" x2="151.011" y2="99.7397" gradientUnits="userSpaceOnUse">
<stop stop-color="#4AF6FF"/>
<stop offset="1" stop-color="#5BBBFF"/>
</linearGradient>
<linearGradient id="paint7_linear" x1="21" y1="13" x2="135.131" y2="30.8739" gradientUnits="userSpaceOnUse">
<stop stop-color="#4AF6FF"/>
<stop offset="1" stop-color="#5BBBFF"/>
</linearGradient>
</defs>
</svg>
